:FULLY-SPECIFIED
:FORCE-ALL-JOINTS-BE-3DOF
:DEGREES
340
root 8.21514 16.0714 -20.4409 11.3091 23.8848 4.27733
lfemur -8.8112 15.8918 -10.3386
ltibia 39.3083 0 0
lfoot 7.34276 29.4435 0
ltoes -31.5232 0 0
rfemur -48.539 -14.7518 9.94228
rtibia 55.7177 0 0
rfoot 2.91388 -19.0316 0
rtoes 0.210885 0 0
lowerback -1.32953 -1.90158 -1.56441
upperback 1.63833 -2.49404 -0.0546701
thorax 2.49257 -1.2721 0.737818
lowerneck -5.63008 -8.63942 -0.693607
upperneck -2.10185 -11.4988 6.64207
head 0.743097 -5.68649 1.88461
lclavicle -1.46506e-15 2.92788e-15 0
lhumerus -48.2518 -34.0706 109.617
lradius 57.2955 0 0
lwrist 20.5792 0 0
lhand 6.05157 12.1764 0
lfingers 7.12502 0 0
lthumb 31.3734 39.5144 0
rclavicle -1.46506e-15 2.92788e-15 0
rhumerus -22.0853 19.665 -73.4379
rradius 85.2373 0 0
rwrist 2.6737 0 0
rhand 10.4176 -7.1068 0
rfingers 7.12502 0 0
rthumb 35.3644 -752.314 0
341
root 8.14915 16.1062 -20.2555 11.026 22.1529 3.61083
lfemur -8.02307 14.4159 -9.52339
ltibia 39.6379 0 0
lfoot 8.92838 30.1917 0
ltoes -30.0101 0 0
rfemur -48.4634 -15.3818 11.989
rtibia 55.3474 0 0
rfoot 1.97872 -17.9269 0
rtoes -2.47131 0 0
lowerback -1.51448 -1.78751 -1.29129
upperback 1.58311 -2.35063 0.0664996
thorax 2.53021 -1.19667 0.709005
lowerneck -5.85785 -8.36176 -0.686614
upperneck -1.73943 -11.1497 6.54823
head 0.876501 -5.50098 1.84823
lclavicle 2.77955e-15 -4.93767e-16 0
lhumerus -48.2361 -33.0323 109.324
lradius 56.9996 0 0
lwrist 20.8223 0 0
lhand 5.49229 11.8968 0
lfingers 7.12502 0 0
lthumb 30.8402 39.3359 0
rclavicle 2.77955e-15 -4.93767e-16 0
rhumerus -23.7301 18.8523 -75.6208
rradius 85.0666 0 0
rwrist 2.42135 0 0
rhand 2.4041 -8.81057 0
rfingers 7.12502 0 0
rthumb 27.7282 -755.439 0
342
root 8.08013 16.1405 -20.0708 10.7118 20.4316 2.95613
lfemur -7.2946 13.0096 -8.70153
ltibia 40.1417 0 0
lfoot 10.3284 30.6572 0
ltoes -27.9553 0 0
rfemur -48.2825 -15.977 13.9918
rtibia 54.9284 0 0
rfoot 0.978494 -16.7263 0
rtoes -4.72847 0 0
lowerback -1.63278 -1.66694 -1.03348
upperback 1.54683 -2.19925 0.18566
thorax 2.55023 -1.11742 0.688376
lowerneck -6.07491 -8.08834 -0.667435
upperneck -1.38438 -10.8055 6.44418
head 1.00498 -5.31886 1.80812
lclavicle 5.62274e-15 -3.68882e-15 0
lhumerus -48.2147 -32.0709 109.039
lradius 56.7197 0 0
lwrist 20.9756 0 0
lhand 4.92971 11.6145 0
lfingers 7.12502 0 0
lthumb 30.3034 39.1514 0
rclavicle 5.62274e-15 -3.68882e-15 0
rhumerus -25.3473 17.9682 -77.7558
rradius 84.8235 0 0
rwrist 2.21073 0 0
rhand -5.9765 -10.9414 0
rfingers 7.12502 0 0
rthumb 19.7366 -758.954 0
343
root 8.00926 16.1732 -19.8893 10.3854 18.7492 2.34128
lfemur -6.69478 11.7732 -7.90955
ltibia 40.8616 0 0
lfoot 11.5133 30.711 0
ltoes -25.2525 0 0
rfemur -47.9592 -16.5248 15.8438
rtibia 54.4745 0 0
rfoot -0.0878391 -15.4812 0
rtoes -6.4463 0 0
lowerback -1.6893 -1.55157 -0.806988
upperback 1.52684 -2.05401 0.302952
thorax 2.55354 -1.04181 0.684461
lowerneck -6.27021 -7.8196 -0.648126
upperneck -1.04461 -10.4658 6.32822
head 1.12516 -5.14018 1.76592
lclavicle 8.03402e-15 -6.39472e-15 0
lhumerus -48.1688 -31.1786 108.755
lradius 56.4692 0 0
lwrist 21.0289 0 0
lhand 4.34665 11.3422 0
lfingers 7.12502 0 0
lthumb 29.7468 38.9772 0
rclavicle 8.03402e-15 -6.39472e-15 0
rhumerus -26.8827 17.0846 -79.7498
rradius 84.5192 0 0
rwrist 2.13067 0 0
rhand -13.7545 -13.4263 0
rfingers 7.12502 0 0
rthumb 12.3122 -762.59 0
344
root 7.93769 16.2032 -19.7134 10.0655 17.134 1.79433
lfemur -6.2926 10.8071 -7.184
ltibia 41.8393 0 0
lfoot 12.4536 30.2242 0
ltoes -21.7952 0 0
rfemur -47.4568 -17.0123 17.4382
rtibia 53.9997 0 0
rfoot -1.22134 -14.2428 0
rtoes -7.51052 0 0
lowerback -1.6889 -1.45313 -0.62779
upperback 1.52046 -1.92902 0.418519
thorax 2.54107 -0.977288 0.705791
lowerneck -6.43265 -7.55596 -0.640744
upperneck -0.728057 -10.1301 6.19864
head 1.23367 -4.96503 1.72327
lclavicle 1.09829e-14 -8.34896e-15 0
lhumerus -48.0794 -30.3479 108.462
lradius 56.2613 0 0
lwrist 20.9721 0 0
lhand 3.72593 11.0925 0
lfingers 7.12502 0 0
lthumb 29.154 38.8297 0
rclavicle 1.09829e-14 -8.34896e-15 0
rhumerus -28.2821 16.2733 -81.5099
rradius 84.1651 0 0
rwrist 2.27 0 0
rhand -19.9603 -16.1925 0
rfingers 7.12502 0 0
rthumb 6.37809 -766.076 0
345
root 7.86331 16.2312 -19.5409 9.71574 15.5852 1.31375
lfemur -6.02908 10.0427 -6.4963
ltibia 43.1167 0 0
lfoot 13.1617 29.1516 0
ltoes -16.9367 0 0
rfemur -46.7143 -17.4697 18.7875
rtibia 53.4755 0 0
rfoot -2.49418 -12.9277 0
rtoes -7.76106 0 0
lowerback -1.60676 -1.3728 -0.503985
upperback 1.53891 -1.82656 0.533431
thorax 2.51073 -0.925107 0.759085
lowerneck -6.55831 -7.29765 -0.644355
upperneck -0.420475 -9.7988 6.04756
head 1.3338 -4.79367 1.67794
lclavicle 1.40289e-14 -9.64946e-15 0
lhumerus -47.9527 -29.6062 108.176
lradius 56.0813 0 0
lwrist 20.756 0 0
lhand 3.06238 10.8596 0
lfingers 7.12502 0 0
lthumb 28.52 38.7035 0
rclavicle 1.40289e-14 -9.64946e-15 0
rhumerus -29.5714 15.4901 -83.0811
rradius 83.7287 0 0
rwrist 2.71639 0 0
rhand -25.1773 -19.7591 0
rfingers 7.12502 0 0
rthumb 1.37151 -769.906 0
346
root 7.78436 16.2584 -19.369 9.30743 14.0775 0.874109
lfemur -5.82324 9.36779 -5.80443
ltibia 44.6706 0 0
lfoot 13.6681 27.5926 0
ltoes -10.5562 0 0
rfemur -45.7443 -17.9185 19.9909
rtibia 52.8799 0 0
rfoot -3.92947 -11.4625 0
rtoes -7.24617 0 0
lowerback -1.43028 -1.30055 -0.424062
upperback 1.5883 -1.73486 0.64792
thorax 2.46102 -0.879078 0.839
lowerneck -6.65573 -7.04435 -0.64793
upperneck -0.11008 -9.47242 5.87385
head 1.42963 -4.62614 1.62773
lclavicle 1.61632e-14 -1.05623e-14 0
lhumerus -47.8076 -28.9695 107.91
lradius 55.9123 0 0
lwrist 20.3733 0 0
lhand 2.36952 10.6304 0
lfingers 7.12502 0 0
lthumb 27.8577 38.582 0
rclavicle 1.61632e-14 -1.05623e-14 0
rhumerus -30.8076 14.6563 -84.561
rradius 83.189 0 0
rwrist 3.4201 0 0
rhand -30.4621 -24.364 0
rfingers 7.12502 0 0
rthumb -3.71548 -774.487 0
347
root 7.70259 16.2844 -19.1989 8.87058 12.6021 0.467576
lfemur -5.71106 8.81771 -5.1248
ltibia 46.4453 0 0
lfoot 13.97 25.6354 0
ltoes -3.33577 0 0
rfemur -44.6198 -18.3327 21.0714
rtibia 52.237 0 0
rfoot -5.45469 -9.91349 0
rtoes -6.16399 0 0
lowerback -1.18267 -1.2313 -0.374595
upperback 1.65829 -1.64692 0.760866
thorax 2.39371 -0.835454 0.935974
lowerneck -6.73252 -6.79571 -0.648385
upperneck 0.191533 -9.15073 5.68599
head 1.51902 -4.46213 1.57433
lclavicle 1.75034e-14 -1.10769e-14 0
lhumerus -47.6441 -28.4129 107.651
lradius 55.7649 0 0
lwrist 19.8765 0 0
lhand 1.65828 10.4064 0
lfingers 7.12502 0 0
lthumb 27.1774 38.4654 0
rclavicle 1.75034e-14 -1.10769e-14 0
rhumerus -31.9827 13.7923 -85.9357
rradius 82.5749 0 0
rwrist 4.26386 0 0
rhand -35.5544 -29.5122 0
rfingers 7.12502 0 0
rthumb -8.6278 -779.414 0
348
root 7.61972 16.3091 -19.0323 8.43521 11.1504 0.0863236
lfemur -5.72852 8.42759 -4.4738
ltibia 48.385 0 0
lfoot 14.0649 23.3684 0
ltoes 4.04252 0 0
rfemur -43.4142 -18.6864 22.0523
rtibia 51.5704 0 0
rfoot -6.99733 -8.34713 0
rtoes -4.71269 0 0
lowerback -0.887126 -1.15995 -0.342159
upperback 1.73856 -1.55576 0.871152
thorax 2.31057 -0.790486 1.04044
lowerneck -6.79631 -6.55135 -0.642635
upperneck 0.472767 -8.83351 5.49242
head 1.59979 -4.30136 1.51941
lclavicle 1.81668e-14 -1.11829e-14 0
lhumerus -47.4625 -27.9114 107.387
lradius 55.6492 0 0
lwrist 19.3181 0 0
lhand 0.939564 10.1892 0
lfingers 7.12502 0 0
lthumb 26.4896 38.3537 0
rclavicle 1.81668e-14 -1.11829e-14 0
rhumerus -33.0889 12.9184 -87.1911
rradius 81.915 0 0
rwrist 5.13038 0 0
rhand -40.1938 -34.709 0
rfingers 7.12502 0 0
rthumb -13.1104 -784.281 0
349
root 7.5375 16.3321 -18.8703 8.03135 9.71367 -0.277476
lfemur -5.9116 8.23261 -3.86783
ltibia 50.4338 0 0
lfoot 13.9502 20.8797 0
ltoes 10.8966 0 0
rfemur -42.2005 -18.9536 22.9564
rtibia 50.9041 0 0
rfoot -8.48486 -6.82978 0
rtoes -3.09043 0 0
lowerback -0.566847 -1.08144 -0.313329
upperback 1.81879 -1.45439 0.977659
thorax 2.21338 -0.740428 1.14284
lowerneck -6.85472 -6.31092 -0.627596
upperneck 0.722029 -8.52056 5.3016
head 1.66978 -4.14351 1.46466
lclavicle 1.82707e-14 -1.087e-14 0
lhumerus -47.2628 -27.4402 107.106
lradius 55.5758 0 0
lwrist 18.7508 0 0
lhand 0.224277 9.98034 0
lfingers 7.12502 0 0
lthumb 25.8049 38.247 0
rclavicle 1.82707e-14 -1.087e-14 0
rhumerus -34.1182 12.0546 -88.3132
rradius 81.2382 0 0
rwrist 5.90237 0 0
rhand -44.1199 -39.4595 0
rfingers 7.12502 0 0
rthumb -16.9081 -788.683 0
350
root 7.45764 16.3531 -18.7144 7.68901 8.28316 -0.631652
lfemur -6.29629 8.26797 -3.3233
ltibia 52.5359 0 0
lfoot 13.6233 18.2577 0
ltoes 16.5443 0 0
rfemur -41.052 -19.1084 23.807
rtibia 50.2619 0 0
rfoot -9.84475 -5.42783 0
rtoes -1.49537 0 0
lowerback -0.245033 -0.990668 -0.274678
upperback 1.88866 -1.33582 1.07927
thorax 2.1039 -0.681533 1.23361
lowerneck -6.91538 -6.07404 -0.600183
upperneck 0.927722 -8.21165 5.12199
head 1.72681 -3.9883 1.41175
lclavicle 1.79324e-14 -1.01276e-14 0
lhumerus -47.0452 -26.9741 106.795
lradius 55.5549 0 0
lwrist 18.2269 0 0
lhand -0.476668 9.78129 0
lfingers 7.12502 0 0
lthumb 25.1336 38.1452 0
rclavicle 1.79324e-14 -1.01276e-14 0
rhumerus -35.0626 11.2214 -89.288
rradius 80.5731 0 0
rwrist 6.46256 0 0
rhand -47.0726 -43.2688 0
rfingers 7.12502 0 0
rthumb -19.766 -792.217 0
351
root 7.3819 16.3719 -18.5661 7.43822 6.85019 -0.984032
lfemur -6.91857 8.56886 -2.85659
ltibia 54.6357 0 0
lfoot 13.0816 15.5905 0
ltoes 20.3036 0 0
rfemur -40.0419 -19.1248 24.6271
rtibia 49.6676 0 0
rfoot -11.0045 -4.20767 0
rtoes -0.125676 0 0
lowerback 0.0551134 -0.882563 -0.212782
upperback 1.93783 -1.19306 1.17486
thorax 1.98391 -0.610053 1.30319
lowerneck -6.98591 -5.84036 -0.557312
upperneck 1.07825 -7.90657 4.96204
head 1.76873 -3.83542 1.36237
lclavicle 1.72694e-14 -8.94531e-15 0
lhumerus -46.8097 -26.4884 106.442
lradius 55.5969 0 0
lwrist 17.7992 0 0
lhand -1.15236 9.59361 0
lfingers 7.12502 0 0
lthumb 24.4862 38.0484 0
rclavicle 1.72694e-14 -8.94531e-15 0
rhumerus -35.9142 10.439 -90.1014
rradius 79.9485 0 0
rwrist 6.69366 0 0
rhand -48.7915 -45.642 0
rfingers 7.12502 0 0
rthumb -21.4288 -794.477 0
352
root 7.30934 16.388 -18.4259 7.28213 5.40152 -1.33548
lfemur -7.80394 9.2335 -2.42958
ltibia 56.8473 0 0
lfoot 12.2514 12.5867 0
ltoes 21.9448 0 0
rfemur -39.1523 -19.0015 25.4086
rtibia 49.1078 0 0
rfoot -11.9643 -3.13577 0
rtoes 1.13862 0 0
lowerback 0.345086 -0.74833 -0.130565
upperback 1.9629 -1.0144 1.2692
thorax 1.84307 -0.520146 1.35845
lowerneck -7.06353 -5.61419 -0.500158
upperneck 1.17463 -7.61049 4.82145
head 1.79541 -3.68758 1.3168
lclavicle 1.58792e-14 -6.7907e-15 0
lhumerus -46.546 -25.9853 106.05
lradius 55.7177 0 0
lwrist 17.4082 0 0
lhand -1.75638 9.44041 0
lfingers 7.12502 0 0
lthumb 23.9074 37.9764 0
rclavicle 1.58792e-14 -6.7907e-15 0
rhumerus -36.6872 9.64454 -90.7048
rradius 79.3855 0 0
rwrist 6.51221 0 0
rhand -49.0218 -46.4351 0
rfingers 7.12502 0 0
rthumb -21.6528 -795.317 0
353
root 7.23811 16.4014 -18.2929 7.19511 3.94046 -1.67934
lfemur -8.92891 10.2634 -2.01498
ltibia 59.2584 0 0
lfoot 11.1103 9.07081 0
ltoes 21.9976 0 0
rfemur -38.3122 -18.761 26.1283
rtibia 48.5566 0 0
rfoot -12.7888 -2.14194 0
rtoes 2.51363 0 0
lowerback 0.649338 -0.589558 -0.040936
upperback 1.97192 -0.802158 1.36486
thorax 1.67636 -0.413195 1.41019
lowerneck -7.14054 -5.39729 -0.431855
upperneck 1.22752 -7.32533 4.69258
head 1.80872 -3.54593 1.27364
lclavicle 1.35235e-14 -3.49555e-15 0
lhumerus -46.2505 -25.4877 105.631
lradius 55.9134 0 0
lwrist 16.9874 0 0
lhand -2.28294 9.32803 0
lfingers 7.12502 0 0
lthumb 23.4029 37.9358 0
rclavicle 1.35235e-14 -3.49555e-15 0
rhumerus -37.3935 8.79914 -91.0943
rradius 78.8656 0 0
rwrist 5.99464 0 0
rhand -47.9101 -46.0399 0
rfingers 7.12502 0 0
rthumb -20.5834 -795.049 0
